<?xml version="1.0" encoding="utf-8"?>
<!-- Generator: Adobe Illustrator 16.0.0, SVG Export Plug-In . SVG Version: 6.00 Build 0)  -->
<!DOCTYPE svg PUBLIC "-//W3C//DTD SVG 1.1//EN" "http://www.w3.org/Graphics/SVG/1.1/DTD/svg11.dtd">
<svg version="1.1" id="Layer_1" xmlns="http://www.w3.org/2000/svg" xmlns:xlink="http://www.w3.org/1999/xlink" x="0px" y="0px"
	 width="100%" height="100%" viewBox="0 0 612 299.5" enable-background="new 0 0 612 299.5" xml:space="preserve">
<g opacity="0.6">
	<defs>
		<rect id="SVGID_1_" opacity="0.6" width="612" height="299.5"/>
	</defs>
	<clipPath id="SVGID_2_">
		<use xlink:href="#SVGID_1_"  overflow="visible"/>
	</clipPath>
	<g clip-path="url(#SVGID_2_)">
		<path fill="#ED1C24" d="M307.967,309.295l94.239-435.964c-21.952-4.746-44.477-7.879-66.942-9.311l-28.378,445.275H307.967z"/>
		<path fill="#ED1C24" d="M309.955,309.295L528.69-78.591c-19.652-11.084-40.302-20.766-61.368-28.779L308.843,309.295H309.955z"/>
		<path fill="#ED1C24" d="M313.666,309.295L634.836,4.193C619.39-12.068,602.595-27.306,584.92-41.1L311.493,309.295H313.666z"/>
		<path fill="#ED1C24" d="M320.684,309.295l391.396-194.798c-10.015-20.119-21.64-39.665-34.549-58.096L316.567,309.295H320.684z"/>
		<path fill="#ED1C24" d="M347.56,309.295l405.983-66.049c-3.625-22.281-8.969-44.466-15.887-65.942L327.837,309.295H347.56z"/>
		<path fill="#ED1C24" d="M283.147,309.295l-411.054-123.33c-6.477,21.592-11.375,43.869-14.553,66.211l401.404,57.119H283.147z"/>
		<path fill="#ED1C24" d="M295.413,309.295L-70.132,63.763c-12.562,18.699-23.809,38.495-33.433,58.835l394.604,186.697H295.413z"/>
		<path fill="#ED1C24" d="M303.475,309.295L136.673-104.059C115.8-95.635,95.38-85.557,75.981-74.105l226.343,383.4H303.475z"/>
		<path fill="#ED1C24" d="M300.703,309.295L20.562-35.553C3.16-21.417-13.332-5.853-28.454,10.705l326.905,298.59H300.703z"/>
		<path fill="#ED1C24" d="M305.376,309.295l-37.22-444.609c-22.458,1.88-44.939,5.466-66.819,10.663l103.031,433.946H305.376z"/>
	</g>
</g>
</svg>
